<!DOCTYPE svg PUBLIC "-//W3C//DTD SVG 20010904//EN" "http://www.w3.org/TR/2001/REC-SVG-20010904/DTD/svg10.dtd">
<svg version="1.0" xmlns="http://www.w3.org/2000/svg" width="200px" height="200px" viewBox="0 0 2000 2000" preserveAspectRatio="xMidYMid meet">
<g id="layer101" fill="#5b666e" stroke="none">
<path d="M1324 1889 c-52 -15 -69 -43 -69 -112 l0 -62 33 -3 c31 -3 32 -2 32 33 0 65 37 103 83 86 57 -22 36 -99 -53 -203 -79 -92 -104 -146 -97 -206 3 -32 13 -53 36 -76 29 -28 37 -31 97 -31 61 0 67 2 95 33 23 25 29 42 29 76 0 62 -7 76 -41 76 -27 0 -29 -3 -29 -39 0 -28 -7 -49 -24 -68 -21 -24 -27 -26 -52 -18 -30 11 -40 38 -30 80 3 12 38 62 77 111 89 111 102 137 103 195 0 50 -20 90 -57 113 -30 19 -95 27 -133 15z"/>
<path d="M500 1600 l0 -290 105 0 105 0 0 35 0 35 -65 0 -65 0 0 90 0 90 50 0 c49 0 50 1 50 30 0 29 -1 30 -50 30 l-50 0 0 135 0 135 -40 0 -40 0 0 -290z"/>
<path d="M780 1601 l0 -291 54 0 54 0 37 158 c20 86 39 168 42 182 4 18 11 -1 24 -65 11 -49 30 -130 42 -180 l23 -90 55 0 54 0 0 285 0 285 -38 3 -38 3 3 -225 c2 -124 0 -226 -3 -226 -6 0 -21 57 -70 278 -22 99 -24 103 -48 100 -24 -3 -27 -11 -66 -178 -23 -96 -44 -182 -48 -190 -3 -8 -5 86 -4 210 l2 225 -37 3 -38 3 0 -290z"/>
</g>
<g id="layer102" fill="#d15641" stroke="none">
<path d="M745 1067 l-110 -63 -3 -219 -2 -220 39 -22 c22 -13 45 -23 50 -23 7 0 11 68 11 205 l0 205 38 24 c20 13 94 56 165 95 70 40 127 74 127 77 0 2 -46 4 -102 4 l-103 0 -110 -63z"/>
<path d="M1073 944 c-24 -14 -43 -27 -43 -29 0 -2 48 -31 108 -64 59 -33 139 -80 177 -104 l70 -44 3 -186 c1 -110 6 -187 12 -187 5 0 30 35 55 78 l45 77 -2 139 -3 140 -175 102 c-96 57 -182 103 -190 103 -8 1 -34 -11 -57 -25z"/>
<path d="M1175 426 c-17 -11 -310 -184 -325 -191 -3 -2 -77 39 -165 90 -88 51 -161 89 -163 85 -1 -3 18 -43 43 -87 l46 -81 116 -67 c84 -48 121 -64 133 -58 9 4 94 53 189 108 l172 100 -3 54 c-3 58 -12 67 -43 47z"/>
</g>
<g id="layer103" fill="#6ebfc2" stroke="none">
<path d="M950 1026 l-175 -102 -3 -62 c-2 -34 -1 -62 1 -62 3 0 86 48 186 106 l182 105 156 -90 c86 -50 159 -91 164 -91 4 0 -13 37 -39 81 -36 66 -56 88 -96 114 -73 46 -181 105 -192 105 -5 -1 -88 -47 -184 -104z"/>
<path d="M569 910 c-9 -14 -33 -53 -53 -88 l-36 -63 0 -133 0 -133 186 -108 187 -109 46 27 c25 14 45 29 45 34 -1 4 -80 54 -175 110 l-174 102 -5 193 c-5 183 -6 192 -21 168z"/>
<path d="M1250 508 l0 -213 -168 -95 -167 -95 104 -3 103 -3 119 68 119 67 -2 214 -3 213 -52 30 -53 31 0 -214z"/>
</g>


</svg>